<?xml version="1.0" encoding="UTF-8" standalone="no"?>
<svg
   xmlns:dc="http://purl.org/dc/elements/1.1/"
   xmlns:cc="http://creativecommons.org/ns#"
   xmlns:rdf="http://www.w3.org/1999/02/22-rdf-syntax-ns#"
   xmlns:svg="http://www.w3.org/2000/svg"
   xmlns="http://www.w3.org/2000/svg"
   xmlns:sodipodi="http://sodipodi.sourceforge.net/DTD/sodipodi-0.dtd"
   xmlns:inkscape="http://www.inkscape.org/namespaces/inkscape"
   width="256.0px"
   height="256.0px"
   viewBox="0 0 256.0 256.0"
   version="1.1"
   id="SVGRoot"
   sodipodi:docname="logo.svg"
   inkscape:version="1.0.1 (1.0.1+r74)"
   inkscape:export-filename="/media/linx/Data/code/nodejs/discord/neoRamen/assets/logo.png"
   inkscape:export-xdpi="96"
   inkscape:export-ydpi="96">
  <defs
     id="defs833" />
  <sodipodi:namedview
     id="base"
     pagecolor="#ffffff"
     bordercolor="#666666"
     borderopacity="1.0"
     inkscape:pageopacity="0.0"
     inkscape:pageshadow="2"
     inkscape:zoom="3.959798"
     inkscape:cx="90.224216"
     inkscape:cy="80.883997"
     inkscape:document-units="px"
     inkscape:current-layer="layer1"
     inkscape:document-rotation="0"
     showgrid="true"
     inkscape:window-width="1920"
     inkscape:window-height="1080"
     inkscape:window-x="0"
     inkscape:window-y="0"
     inkscape:window-maximized="1">
    <inkscape:grid
       type="xygrid"
       id="grid1403"
       empspacing="16"
       spacingy="4"
       spacingx="4" />
  </sodipodi:namedview>
  <metadata
     id="metadata836">
    <rdf:RDF>
      <cc:Work
         rdf:about="">
        <dc:format>image/svg+xml</dc:format>
        <dc:type
           rdf:resource="http://purl.org/dc/dcmitype/StillImage" />
        <dc:title />
      </cc:Work>
    </rdf:RDF>
  </metadata>
  <g
     inkscape:label="Layer 1"
     inkscape:groupmode="layer"
     id="layer1">
    <rect
       style="fill:#afc6e9;stroke-width:1.8;stroke-opacity:0.373254"
       id="rect1410"
       width="256"
       height="256"
       x="0"
       y="0" />
    <g
       id="g1490"
       transform="matrix(1.5343285,0,0,1.5343285,-68.394052,-57.822301)">
      <ellipse
         style="fill:#deaa87;stroke:none;stroke-width:1.73521;stroke-opacity:0.373254"
         id="ellipse1432"
         cx="128"
         cy="129.13107"
         rx="68"
         ry="14.868929" />
      <ellipse
         style="fill:#c87137;stroke:none;stroke-width:1.8;stroke-opacity:0.373254"
         id="path1426"
         cx="128"
         cy="132"
         rx="68"
         ry="16" />
      <g
         id="g1430">
        <path
           style="fill:#e9c6af;stroke:none;stroke-width:1px;stroke-linecap:butt;stroke-linejoin:miter;stroke-opacity:1"
           d="m 128,140.94663 c 20,0 48,-4.94663 64,-12.94663 17.88854,-8.94427 0,64 -64,64 -64,0 -81.888544,-72.94427 -64,-64 16,8 44,12.94663 64,12.94663 z"
           id="path1412"
           sodipodi:nodetypes="sssss" />
        <path
           id="path1414"
           style="fill:#c8b7b7;stroke:none;stroke-width:1px;stroke-linecap:butt;stroke-linejoin:miter;stroke-opacity:1"
           d="M 61.068359,127.24414 C 48.528322,127.88819 68,192 128,192 c 14.49368,0 26.61407,-3.74791 36.49805,-9.43164 a 81.845261,81.845261 0 0 1 -9.89844,0.59961 81.845261,81.845261 0 0 1 -75.105469,-49.31836 C 73.706986,132.15284 68.392273,130.19614 64,128 c -1.118034,-0.55902 -2.095638,-0.7988 -2.931641,-0.75586 z" />
      </g>
      <circle
         style="fill:#ffdd55;stroke:none;stroke-width:1.8;stroke-opacity:0.373254"
         id="path1434"
         cx="91.127831"
         cy="131.19527"
         r="4" />
      <circle
         style="fill:#ffdd55;stroke:none;stroke-width:1.8;stroke-opacity:0.373254"
         id="circle1436"
         cx="103.04467"
         cy="123.51965"
         r="4" />
      <circle
         style="fill:#ffdd55;stroke:none;stroke-width:1.8;stroke-opacity:0.373254"
         id="circle1438"
         cx="121.00928"
         cy="124.11217"
         r="4" />
      <circle
         style="fill:#ffdd55;stroke:none;stroke-width:1.8;stroke-opacity:0.373254"
         id="circle1440"
         cx="149.60762"
         cy="122.47173"
         r="4" />
      <circle
         style="fill:#ffdd55;stroke:none;stroke-width:1.8;stroke-opacity:0.373254"
         id="circle1442"
         cx="172.18239"
         cy="127.48182"
         r="4" />
      <circle
         style="fill:#ffdd55;stroke:none;stroke-width:1.8;stroke-opacity:0.373254"
         id="circle1444"
         cx="133.2988"
         cy="123.02044"
         r="4" />
      <circle
         style="fill:#ffdd55;stroke:none;stroke-width:1.8;stroke-opacity:0.373254"
         id="circle1446"
         cx="140.05782"
         cy="134.01991"
         r="4" />
      <circle
         style="fill:#ffdd55;stroke:none;stroke-width:1.8;stroke-opacity:0.373254"
         id="circle1448"
         cx="111.37836"
         cy="134.21434"
         r="4" />
      <circle
         style="fill:#ffdd55;stroke:none;stroke-width:1.8;stroke-opacity:0.373254"
         id="circle1450"
         cx="158.51546"
         cy="132.00731"
         r="4" />
      <circle
         style="fill:#ffdd55;stroke:none;stroke-width:1.8;stroke-opacity:0.373254"
         id="circle1452"
         cx="126.47039"
         cy="134.08437"
         r="4" />
      <circle
         style="fill:#ffdd55;stroke:none;stroke-width:1.8;stroke-opacity:0.373254"
         id="circle1454"
         cx="80.276482"
         cy="126.48372"
         r="4" />
    </g>
    <path
       style="fill:none;stroke:#000000;stroke-width:14.5455;stroke-linecap:round;stroke-linejoin:miter;stroke-miterlimit:4;stroke-dasharray:none;stroke-opacity:0.316193"
       d="m 80,44 c 0,0 6.682858,8.366273 6.682858,20.002636 C 86.682858,75.639 74.181818,76 74.181818,87.636364 74.181818,99.272727 80,108 80,108"
       id="path26"
       sodipodi:nodetypes="cscc" />
    <path
       style="fill:none;stroke:#000000;stroke-width:20;stroke-linecap:round;stroke-linejoin:miter;stroke-miterlimit:4;stroke-dasharray:none;stroke-opacity:0.316193"
       d="m 128,16 c 0,0 9.18893,11.503625 9.18893,27.503625 C 137.18893,59.503625 120,60 120,76 c 0,16 8,28 8,28"
       id="path851"
       sodipodi:nodetypes="cscc" />
    <path
       style="fill:none;stroke:#000000;stroke-width:14.5455;stroke-linecap:round;stroke-linejoin:miter;stroke-miterlimit:4;stroke-dasharray:none;stroke-opacity:0.316193"
       d="m 172,44 c 0,0 6.68286,8.366273 6.68286,20.002636 C 178.68286,75.639 166.18182,76 166.18182,87.636364 166.18182,99.272727 172,108 172,108"
       id="path853"
       sodipodi:nodetypes="cscc" />
  </g>
</svg>
